<svg xmlns="http://www.w3.org/2000/svg" width="1200" height="190" viewBox="0 0 1200 190" role="img" aria-labelledby="title desc">
  <title id="title">Nithushan Uthayarasa profile banner</title>
  <desc id="desc">A static editorial banner in charcoal, plum, and warm ivory with abstract connected forms.</desc>
  <defs>
    <linearGradient id="back" x1="0" y1="0" x2="1" y2="1"><stop stop-color="#17191E"/><stop offset=".58" stop-color="#24232A"/><stop offset="1" stop-color="#493746"/></linearGradient>
    <linearGradient id="accent" x1="0" y1="0" x2="1" y2="0"><stop stop-color="#D0A69A"/><stop offset="1" stop-color="#9A7488"/></linearGradient>
    <clipPath id="round"><rect width="1200" height="190" rx="16"/></clipPath>
  </defs>
  <g clip-path="url(#round)">
    <rect width="1200" height="190" fill="url(#back)"/>
    <path d="M0 153H1200M0 96H1200M0 39H1200M142 0V190M343 0V190M544 0V190M745 0V190M946 0V190M1147 0V190" stroke="#F6EDE8" stroke-opacity=".045"/>
    <rect x="43" y="37" width="4" height="115" rx="2" fill="url(#accent)"/>
    <text x="72" y="78" fill="#F5F0ED" font-family="Arial, Helvetica, sans-serif" font-size="23" font-weight="700" letter-spacing="3">NITHUSHAN UTHAYARASA</text>
    <text x="72" y="113" fill="#D7C5C4" font-family="Arial, Helvetica, sans-serif" font-size="14" letter-spacing="2">ARTIFICIAL INTELLIGENCE  /  ENGINEERING</text>
    <text x="72" y="143" fill="#AFA6A9" font-family="Arial, Helvetica, sans-serif" font-size="11" letter-spacing="1.6">RETRIEVAL  ·  MACHINE LEARNING  ·  APPLICATIONS</text>
    <circle cx="1029" cy="96" r="70" fill="none" stroke="#D0A69A" stroke-opacity=".32"/>
    <circle cx="1029" cy="96" r="46" fill="none" stroke="#D0A69A" stroke-opacity=".5"/>
    <path d="M947 103 995 56 1069 59 1109 116 1049 149 978 137 947 103 1069 59 1049 149 995 56 978 137 1109 116" fill="none" stroke="#D7B0AB" stroke-opacity=".48" stroke-width="1.5"/>
    <g fill="#D8B3AA"><circle cx="947" cy="103" r="4"/><circle cx="995" cy="56" r="4"/><circle cx="1069" cy="59" r="4"/><circle cx="1109" cy="116" r="4"/><circle cx="1049" cy="149" r="4"/><circle cx="978" cy="137" r="4"/></g>
    <circle cx="1029" cy="96" r="7" fill="#E7C9BD"/>
    <path d="M0 187H1200" stroke="url(#accent)" stroke-width="3"/>
  </g>
</svg>
